<?xml version="1.0" encoding="UTF-8"?>
<svg version="1.1" xmlns="http://www.w3.org/2000/svg" width="116" height="119">
<path d="M0 0 C0.556875 0.52335937 1.11375 1.04671875 1.6875 1.5859375 C1.6875 2.2459375 1.6875 2.9059375 1.6875 3.5859375 C2.3475 3.5859375 3.0075 3.5859375 3.6875 3.5859375 C11.69482477 12.89494561 15.29825863 25.31363291 14.625 37.4609375 C12.68633294 52.87524132 6.05404343 64.25559916 -6.1875 73.8359375 C-18.48804492 80.72424265 -31.65063372 82.46665354 -45.5 79.5234375 C-56.58119859 76.3763771 -66.33192195 69.08901753 -72.0625 59.0859375 C-72.83166756 57.59567535 -73.58295364 56.09599118 -74.3125 54.5859375 C-74.621875 53.95300781 -74.93125 53.32007812 -75.25 52.66796875 C-79.60295303 43.18773931 -79.88345959 29.92938897 -77.203125 19.83984375 C-74.34961518 12.61846145 -70.25886581 5.64034844 -64.3125 0.5859375 C-63.82523438 0.10898437 -63.33796875 -0.36796875 -62.8359375 -0.859375 C-44.39962005 -18.24718151 -18.58935419 -14.38162875 0 0 Z M-62.3125 6.5859375 C-62.3125 7.2459375 -62.3125 7.9059375 -62.3125 8.5859375 C-62.9725 8.5859375 -63.6325 8.5859375 -64.3125 8.5859375 C-71.22743077 16.96144771 -73.78984118 27.84470874 -73.1328125 38.5 C-72.15925017 46.18915551 -69.46666426 52.09369649 -65.3125 58.5859375 C-64.735 59.4934375 -64.1575 60.4009375 -63.5625 61.3359375 C-54.65457472 70.24386278 -44.82410364 74.93235808 -32.3125 75.0859375 C-25.28539085 74.99968002 -19.46019689 74.22502953 -13.3125 70.5859375 C-12.46300781 70.08835937 -11.61351562 69.59078125 -10.73828125 69.078125 C-1.56920748 63.18469941 4.93194923 55.23576886 7.6875 44.5859375 C9.9130505 31.52425837 7.82140711 20.61084263 0.8359375 9.3515625 C-5.28582721 1.47118175 -14.70346785 -3.76180446 -24.3125 -6.1640625 C-38.8044904 -7.37172837 -52.11890714 -4.59096014 -62.3125 6.5859375 Z " fill="#292B2C" transform="translate(89.3125,24.4140625)"/>
<path d="M0 0 C0.30738797 6.80298103 -0.84130267 12.82450731 -2.375 19.4375 C-2.70757812 20.91573242 -2.70757812 20.91573242 -3.046875 22.42382812 C-3.48312552 24.36001056 -3.92279968 26.29542538 -4.36621094 28.22998047 C-5.26294195 32.14920622 -6.13127129 36.07448289 -7 40 C-8.83886719 40.58959961 -8.83886719 40.58959961 -11 41 C-13.578125 39.56640625 -13.578125 39.56640625 -16.25 37.5625 C-17.14203125 36.90378906 -18.0340625 36.24507812 -18.953125 35.56640625 C-19.62859375 35.04949219 -20.3040625 34.53257813 -21 34 C-23.46800047 35.15173355 -25.04783565 36.04783565 -27 38 C-29.625 37.625 -29.625 37.625 -32 37 C-32.16113281 36.18015625 -32.32226562 35.3603125 -32.48828125 34.515625 C-34.02390221 27.8713745 -34.02390221 27.8713745 -38.71484375 23.3125 C-41.4667889 22.34914211 -44.14230661 21.57153868 -47 21 C-47 19.35 -47 17.7 -47 16 C-46.12859375 15.69707031 -45.2571875 15.39414062 -44.359375 15.08203125 C-38.55195341 13.03937755 -32.79457112 10.9677726 -27.125 8.5625 C-22.30025917 6.52351128 -17.45052818 4.56875135 -12.5625 2.6875 C-11.88783691 2.42074463 -11.21317383 2.15398926 -10.51806641 1.87915039 C-6.88755027 0.49806463 -3.89202848 -0.32246093 0 0 Z M-19 14 C-21.28974316 15.24493748 -23.44190034 16.52641528 -25.625 17.9375 C-26.23601563 18.32357422 -26.84703125 18.70964844 -27.4765625 19.10742188 C-28.9889242 20.06446326 -30.49506117 21.03132811 -32 22 C-31.67 24.31 -31.34 26.62 -31 29 C-30.34 29 -29.68 29 -29 29 C-28.79375 28.278125 -28.5875 27.55625 -28.375 26.8125 C-27.02566553 24.05249768 -26.19979435 23.15478986 -23.875 21.3125 C-22.92625 20.549375 -21.9775 19.78625 -21 19 C-21 18.34 -21 17.68 -21 17 C-19.68 16.34 -18.36 15.68 -17 15 C-17.66 14.67 -18.32 14.34 -19 14 Z " fill="#292B2C" transform="translate(79,40)"/>
</svg>
