<?xml version="1.0" encoding="UTF-8"?>
<svg version="1.1" xmlns="http://www.w3.org/2000/svg" width="116" height="119">
<path d="M0 0 C6.25209811 6.39419125 11.17259886 13.22116288 13.75 21.8125 C14.27013672 23.43478516 14.27013672 23.43478516 14.80078125 25.08984375 C17.2381121 34.64859394 16.47094697 44.71324102 12.75 53.8125 C12.50636719 54.4725 12.26273437 55.1325 12.01171875 55.8125 C7.12560413 67.2983429 -3.02386735 75.46538735 -14.3125 80.05859375 C-27.84966928 84.7608076 -40.12210555 83.66126533 -53.0078125 77.4921875 C-64.51105354 71.05459389 -72.54388006 61.38800133 -76.1640625 48.578125 C-78.57631369 35.3911518 -76.71462726 23.9516351 -71.25 11.8125 C-70.59 11.8125 -69.93 11.8125 -69.25 11.8125 C-69.023125 11.090625 -68.79625 10.36875 -68.5625 9.625 C-66.95910575 6.18915518 -65.05298595 4.36633164 -62.25 1.8125 C-61.73308594 1.31492187 -61.21617188 0.81734375 -60.68359375 0.3046875 C-43.44103602 -15.61767439 -18.13500683 -12.20625459 0 0 Z M-47.25 -1.1875 C-48.260625 -0.775 -49.27125 -0.3625 -50.3125 0.0625 C-54.36490218 2.47669704 -57.99770546 5.38685981 -61.25 8.8125 C-61.25 9.4725 -61.25 10.1325 -61.25 10.8125 C-61.91 10.8125 -62.57 10.8125 -63.25 10.8125 C-63.58 12.1325 -63.91 13.4525 -64.25 14.8125 C-64.91 14.8125 -65.57 14.8125 -66.25 14.8125 C-71.44366251 26.85066774 -73.67839937 37.87127887 -69.1875 50.6875 C-66.7489529 56.32402744 -63.67432553 61.49961844 -59.25 65.8125 C-58.59 65.8125 -57.93 65.8125 -57.25 65.8125 C-57.25 66.4725 -57.25 67.1325 -57.25 67.8125 C-55.17395908 69.34244513 -55.17395908 69.34244513 -52.5625 70.8125 C-51.69238281 71.328125 -50.82226562 71.84375 -49.92578125 72.375 C-40.45320806 77.46391523 -29.39333783 78.46392098 -19 75.625 C-14.27044419 74.00560009 -10.27629924 71.75447231 -6.25 68.8125 C-5.64285156 68.38195312 -5.03570312 67.95140625 -4.41015625 67.5078125 C3.55003767 61.34171042 7.62012728 52.46688655 9.75 42.8125 C9.91628906 42.08417969 10.08257812 41.35585938 10.25390625 40.60546875 C12.07903522 29.9428732 7.61816225 19.52541538 1.75 10.8125 C-2.25678452 5.85698259 -6.60376371 2.68694757 -12.25 -0.1875 C-13.28125 -0.744375 -14.3125 -1.30125 -15.375 -1.875 C-24.92554113 -6.23502965 -37.8183763 -5.48368452 -47.25 -1.1875 Z " fill="#292B2C" transform="translate(89.25,22.1875)"/>
<path d="M0 0 C0.721875 0.185625 1.44375 0.37125 2.1875 0.5625 C5.12826973 1.01995307 7.14103058 0.73516357 10 0 C10 1.65 10 3.3 10 5 C11.175625 4.7215625 11.175625 4.7215625 12.375 4.4375 C15 4 15 4 17 5 C17 9.62 17 14.24 17 19 C17.33 19 17.66 19 18 19 C18 14.38 18 9.76 18 5 C20.64 5 23.28 5 26 5 C26 9.62 26 14.24 26 19 C24.68 19 23.36 19 22 19 C22 19.66 22 20.32 22 21 C22.92232422 20.94779297 22.92232422 20.94779297 23.86328125 20.89453125 C24.67152344 20.86746094 25.47976562 20.84039062 26.3125 20.8125 C27.51326172 20.76029297 27.51326172 20.76029297 28.73828125 20.70703125 C31.58786704 21.07614858 32.2565819 21.75278399 34 24 C34.37231445 26.22070312 34.37231445 26.22070312 34.36328125 28.78125 C34.36263672 29.70550781 34.36199219 30.62976563 34.36132812 31.58203125 C34.34521484 32.54496094 34.32910156 33.50789063 34.3125 34.5 C34.31572266 35.46292969 34.31894531 36.42585938 34.32226562 37.41796875 C34.26717923 44.59923115 34.26717923 44.59923115 32 48 C26.96792273 49.97988065 20.89602353 49.22467768 15.58276367 49.24023438 C13.57233489 49.24995246 11.56292417 49.28101006 9.55273438 49.3125 C8.27849609 49.31765625 7.00425781 49.3228125 5.69140625 49.328125 C3.94645874 49.34214355 3.94645874 49.34214355 2.16625977 49.35644531 C-1.35436079 48.96010743 -3.23021025 48.18827992 -6 46 C-6.77734375 42.7421875 -6.77734375 42.7421875 -6.9375 38.875 C-6.96561768 38.20645996 -6.99373535 37.53791992 -7.02270508 36.84912109 C-7.16818659 31.54385273 -6.64745171 27.0290631 -5 22 C-2.20601948 20.60300974 0.53923715 20.39128865 3.625 19.9375 C4.81351563 19.76089844 6.00203125 19.58429687 7.2265625 19.40234375 C8.59941406 19.20318359 8.59941406 19.20318359 10 19 C9.67 18.67 9.34 18.34 9 18 C8.54540142 15.34536879 8.29756762 12.67810862 8 10 C7.67 12.97 7.34 15.94 7 19 C5.68 19 4.36 19 3 19 C1.93034128 12.67551301 0.86670454 6.35583327 0 0 Z M13 9 C13 10.98 13 12.96 13 15 C13.33 15 13.66 15 14 15 C14 13.02 14 11.04 14 9 C13.67 9 13.34 9 13 9 Z M-2 26 C-2 26.66 -2 27.32 -2 28 C-1.34 28 -0.68 28 0 28 C0 32.62 0 37.24 0 42 C0.66 42 1.32 42 2 42 C2 37.38 2 32.76 2 28 C2.99 28 3.98 28 5 28 C5 27.34 5 26.68 5 26 C2.69 26 0.38 26 -2 26 Z M15 26 C15 31.28 15 36.56 15 42 C15.33 42 15.66 42 16 42 C16 36.72 16 31.44 16 26 C15.67 26 15.34 26 15 26 Z M6 31 C6 34.63 6 38.26 6 42 C6.33 42 6.66 42 7 42 C7 38.37 7 34.74 7 31 C6.67 31 6.34 31 6 31 Z M11 31 C11 34.63 11 38.26 11 42 C11.33 42 11.66 42 12 42 C12 38.37 12 34.74 12 31 C11.67 31 11.34 31 11 31 Z M19 31 C19.33 34.63 19.66 38.26 20 42 C20.33 42 20.66 42 21 42 C21 38.37 21 34.74 21 31 C20.34 31 19.68 31 19 31 Z M24 33 C24 35.64 24 38.28 24 41 C24.33 41 24.66 41 25 41 C25 38.36 25 35.72 25 33 C24.67 33 24.34 33 24 33 Z M29 33 C30 36 30 36 30 36 Z " fill="#292B2C" transform="translate(44,34)"/>
</svg>
