<?xml version="1.0" encoding="UTF-8"?>
<svg version="1.1" xmlns="http://www.w3.org/2000/svg" width="116" height="119">
<path d="M0 0 C0.60585937 0.46277344 1.21171875 0.92554688 1.8359375 1.40234375 C1.8359375 2.06234375 1.8359375 2.72234375 1.8359375 3.40234375 C2.42375 3.64984375 3.0115625 3.89734375 3.6171875 4.15234375 C10.76246153 8.17785025 14.54061494 16.88199044 16.8359375 24.40234375 C20.24950973 37.43243662 18.79111468 51.08584298 12.0859375 62.90234375 C5.31226724 72.99511243 -4.31630219 80.80251939 -16.20703125 83.9296875 C-31.67756491 86.40252049 -45.28688864 83.5599683 -58.1640625 74.40234375 C-60.08954093 72.81588861 -61.55684522 71.33100448 -63.1640625 69.40234375 C-63.1640625 68.74234375 -63.1640625 68.08234375 -63.1640625 67.40234375 C-63.8240625 67.40234375 -64.4840625 67.40234375 -65.1640625 67.40234375 C-73.01980558 53.7091315 -77.29930989 39.48564335 -73.05859375 23.62109375 C-67.63740711 10.17465703 -58.67823935 -0.1749513 -45.3046875 -5.87109375 C-30.16221092 -11.01069347 -13.31330004 -8.04942602 0 0 Z M-59.56640625 11.30078125 C-67.07532379 21.17803709 -69.84922645 31.69268595 -68.6640625 43.90234375 C-66.89193389 54.95010753 -61.85183169 63.37524548 -53.1640625 70.40234375 C-42.83439214 77.68338298 -32.67244231 79.66231653 -20.1640625 78.40234375 C-7.99112896 75.76062205 1.06947633 68.68981413 7.8359375 58.40234375 C13.74608501 48.01688223 14.01719857 35.80232831 10.9765625 24.44140625 C9.08991131 19.41464384 6.29505548 15.47147217 2.8359375 11.40234375 C2.27648437 10.74363281 1.71703125 10.08492187 1.140625 9.40625 C-5.68945166 2.02023687 -14.18136795 -2.09504585 -24.203125 -2.81640625 C-37.86137823 -3.20024475 -50.08552942 1.12508838 -59.56640625 11.30078125 Z " fill="#292B2C" transform="translate(85.1640625,20.59765625)"/>
<path d="M0 0 C0 3.3 0 6.6 0 10 C-2.97 10 -5.94 10 -9 10 C-9.33 12.97 -9.66 15.94 -10 19 C-6.7 19 -3.4 19 0 19 C-0.66 22.63 -1.32 26.26 -2 30 C-4.64 30 -7.28 30 -10 30 C-10 37.92 -10 45.84 -10 54 C-13.63 54 -17.26 54 -21 54 C-21 46.08 -21 38.16 -21 30 C-23.64 30 -26.28 30 -29 30 C-29 26.37 -29 22.74 -29 19 C-26.36 19 -23.72 19 -21 19 C-21.03480469 18.19175781 -21.06960937 17.38351563 -21.10546875 16.55078125 C-21.13253906 15.48214844 -21.15960938 14.41351563 -21.1875 13.3125 C-21.22230469 12.25675781 -21.25710937 11.20101562 -21.29296875 10.11328125 C-20.96073001 6.58269089 -20.12121463 4.8134525 -18 2 C-11.98433868 -1.75978833 -6.84287536 -1.02705001 0 0 Z " fill="#292B2C" transform="translate(72,33)"/>
</svg>
