<?xml version="1.0" encoding="UTF-8"?>
<svg version="1.1" xmlns="http://www.w3.org/2000/svg" width="116" height="119">
<path d="M0 0 C8.65578947 6.47123308 14.07209357 13.68160162 17.8125 23.8125 C18.05871094 24.47894531 18.30492188 25.14539062 18.55859375 25.83203125 C22.1450756 37.58085111 19.67618672 49.74219579 14.4921875 60.5703125 C6.87877547 74.17460612 -3.86194489 80.03731496 -18.1875 84.8125 C-32.72420348 85.77739544 -45.22743753 83.82407485 -57.1875 74.8125 C-67.75290825 64.86615864 -72.96307805 53.02267475 -73.4375 38.625 C-73.35342126 29.89282182 -70.9297274 21.65335741 -67.1875 13.8125 C-66.5275 13.8125 -65.8675 13.8125 -65.1875 13.8125 C-64.92453125 13.06742188 -64.6615625 12.32234375 -64.390625 11.5546875 C-60.20467802 2.01399016 -50.24485271 -2.33924054 -41.1875 -6.1875 C-27.40430972 -10.29410531 -11.81486366 -7.65119183 0 0 Z M-53.1875 6.8125 C-53.1875 7.4725 -53.1875 8.1325 -53.1875 8.8125 C-54.1775 9.1425 -55.1675 9.4725 -56.1875 9.8125 C-59.22027199 12.86758026 -59.22027199 12.86758026 -60.1875 16.8125 C-60.8475 16.8125 -61.5075 16.8125 -62.1875 16.8125 C-62.83989158 18.20528017 -63.48410552 19.60189212 -64.125 21 C-64.66447266 22.16595703 -64.66447266 22.16595703 -65.21484375 23.35546875 C-68.87282255 32.59590516 -68.485848 44.29490992 -65.3125 53.625 C-61.26569318 62.86827467 -54.37909796 70.57022402 -45.1875 74.8125 C-44.15625 75.369375 -43.125 75.92625 -42.0625 76.5 C-33.56962159 80.37718362 -22.06183884 80.1657354 -13.3125 77.1875 C-1.1508259 72.02690832 6.58533696 64.51107504 11.8671875 52.42578125 C15.38074003 42.71269596 14.94130234 30.94187022 10.7890625 21.48046875 C9.84410061 19.56708846 8.83437282 17.6859335 7.8125 15.8125 C7.1525 15.8125 6.4925 15.8125 5.8125 15.8125 C5.585625 15.255625 5.35875 14.69875 5.125 14.125 C0.98936992 6.83841367 -7.14162419 1.62485881 -14.9375 -1.0625 C-28.59443558 -4.62517885 -42.0228574 -1.71538658 -53.1875 6.8125 Z " fill="#292B2C" transform="translate(86.1875,21.1875)"/>
<path d="M0 0 C1.82421875 1.40234375 1.82421875 1.40234375 2.43359375 4.44140625 C2.48 5.62476563 2.52640625 6.808125 2.57421875 8.02734375 C2.6309375 9.21585938 2.68765625 10.404375 2.74609375 11.62890625 C2.771875 12.54414062 2.79765625 13.459375 2.82421875 14.40234375 C3.25089844 13.46390625 3.67757812 12.52546875 4.1171875 11.55859375 C6.03613273 7.73067593 7.91668021 4.58474561 10.82421875 1.40234375 C15.34453661 0.26324427 19.26326019 0.5888801 23.82421875 1.40234375 C24.82421875 4.40234375 24.82421875 4.40234375 24.1875 6.26953125 C23.66736328 7.26339844 23.66736328 7.26339844 23.13671875 8.27734375 C22.76804688 8.98246094 22.399375 9.68757813 22.01953125 10.4140625 C20.82421875 12.40234375 20.82421875 12.40234375 18.51171875 15.08984375 C16.50457118 17.30723829 16.50457118 17.30723829 17.07421875 20.21484375 C17.32171875 20.93671875 17.56921875 21.65859375 17.82421875 22.40234375 C18.81421875 22.73234375 19.80421875 23.06234375 20.82421875 23.40234375 C20.82421875 24.06234375 20.82421875 24.72234375 20.82421875 25.40234375 C21.48421875 25.40234375 22.14421875 25.40234375 22.82421875 25.40234375 C23.48421875 27.38234375 24.14421875 29.36234375 24.82421875 31.40234375 C22.16599113 34.06057137 20.71819335 33.76214946 17.01171875 33.83984375 C11.28787557 33.77137673 11.28787557 33.77137673 7.76171875 30.96484375 C7.12234375 30.11921875 6.48296875 29.27359375 5.82421875 28.40234375 C4.83421875 28.07234375 3.84421875 27.74234375 2.82421875 27.40234375 C2.63859375 28.60890625 2.63859375 28.60890625 2.44921875 29.83984375 C2.24296875 30.68546875 2.03671875 31.53109375 1.82421875 32.40234375 C-1.40850147 34.01870386 -4.67115614 33.84581125 -8.17578125 33.40234375 C-20.14189418 29.36240837 -25.84161907 18.20208294 -31.390625 7.6640625 C-32.2815742 5.0975969 -32.1014118 3.91476954 -31.17578125 1.40234375 C-27.46828416 1.11908845 -23.87611595 0.97897708 -20.17578125 1.40234375 C-18.30078125 3.40234375 -18.30078125 3.40234375 -17.17578125 6.40234375 C-16.32699995 7.85547883 -15.45017913 9.29248138 -14.55078125 10.71484375 C-14.12539063 11.41222656 -13.7 12.10960937 -13.26171875 12.828125 C-12.72417969 13.60736328 -12.72417969 13.60736328 -12.17578125 14.40234375 C-11.84578125 14.40234375 -11.51578125 14.40234375 -11.17578125 14.40234375 C-11.17578125 11.10234375 -11.17578125 7.80234375 -11.17578125 4.40234375 C-12.16578125 4.07234375 -13.15578125 3.74234375 -14.17578125 3.40234375 C-10.83292153 -1.61194583 -5.58432944 -1.53393609 0 0 Z " fill="#292B2C" transform="translate(62.17578125,44.59765625)"/>
</svg>
