<?xml version="1.0" encoding="UTF-8"?>
<svg version="1.1" xmlns="http://www.w3.org/2000/svg" width="116" height="119">
<path d="M0 0 C0.88558594 -0.01160156 1.77117188 -0.02320313 2.68359375 -0.03515625 C13.21947157 0.01125731 24.02623833 3.7564474 31.99609375 10.8359375 C42.59282405 21.68038357 45.68922882 31.19102234 45.8125 46 C45.85600586 47.70736328 45.85600586 47.70736328 45.90039062 49.44921875 C45.99742053 62.45122619 41.55092248 71.0895354 32.62109375 80.31640625 C22.06223625 90.19267095 10.00263552 92.99977501 -4.046875 92.6875 C-9.7331155 92.40055767 -14.44245632 90.97625256 -19.5 88.375 C-20.37140625 87.92769531 -21.2428125 87.48039062 -22.140625 87.01953125 C-34.21483982 80.27749214 -41.3010887 70.60986379 -45.06542969 57.38916016 C-47.10973396 47.91415442 -46.32812993 36.2410152 -42.5 27.375 C-42.23316406 26.69566406 -41.96632813 26.01632813 -41.69140625 25.31640625 C-37.05863416 14.75368589 -28.00490895 7.00859198 -17.51708984 2.52783203 C-11.62628085 0.32805834 -6.24981106 -0.08187525 0 0 Z M-30.8671875 19.16015625 C-38.20169048 29.10911125 -41.90699097 40.22329299 -40.19140625 52.6015625 C-38.02659766 63.75128463 -31.9660859 73.49785792 -22.65234375 80.05859375 C-12.09246856 86.5171744 -0.39544447 88.26649791 11.71484375 85.69140625 C17.80018739 83.63450889 22.68071709 80.58634584 27.5 76.375 C28.36625 75.6325 29.2325 74.89 30.125 74.125 C39.33755985 63.45782544 41.37867353 53.17805105 40.6953125 39.53076172 C39.65135669 28.00809942 32.38845162 19.40282412 23.9375 12.13671875 C6.65816318 -0.3520327 -16.84342237 4.22179774 -30.8671875 19.16015625 Z " fill="#292B2C" transform="translate(58.5,12.625)"/>
<path d="M0 0 C4.20668145 5.56367547 3.19748203 12.12521216 3.25 18.8125 C3.27900391 20.02808594 3.30800781 21.24367188 3.33789062 22.49609375 C3.42168587 34.31766871 3.42168587 34.31766871 -1.0625 39.5625 C-7.01855193 43.36258521 -13.16113006 43.01343194 -20.0625 42.9375 C-21.11695312 42.94910156 -22.17140625 42.96070313 -23.2578125 42.97265625 C-29.25526361 42.95010944 -33.90121289 42.74798189 -39.0625 39.5625 C-42.53199243 35.22887496 -43.56748009 32.33164822 -43.55859375 26.80859375 C-43.55923828 25.54208984 -43.55988281 24.27558594 -43.56054688 22.97070312 C-43.54056641 21.66037109 -43.52058594 20.35003906 -43.5 19 C-43.50708984 17.68580078 -43.51417969 16.37160156 -43.52148438 15.01757812 C-43.4497306 4.18275858 -43.4497306 4.18275858 -40.0625 -0.4375 C-31.11601919 -7.59468465 -8.83514682 -7.03205563 0 0 Z M-36.97265625 5.53515625 C-38.58953001 10.02647225 -38.53601857 14.26192065 -38.5 19 C-38.51998047 19.92876953 -38.53996094 20.85753906 -38.56054688 21.81445312 C-38.55635901 27.69840429 -37.97179955 31.08536922 -34.0625 35.5625 C-29.97184806 37.60782597 -24.74610174 36.8356755 -20.25 36.875 C-19.15623047 36.90400391 -18.06246094 36.93300781 -16.93554688 36.96289062 C-10.66619108 37.0254662 -10.66619108 37.0254662 -4.86328125 34.91796875 C-1.31016118 30.27039521 -1.90390119 24.77229158 -1.875 19.125 C-1.86082031 17.86816406 -1.84664062 16.61132812 -1.83203125 15.31640625 C-2.07482439 11.36175868 -2.84004169 8.30718455 -4.0625 4.5625 C-4.3925 4.5625 -4.7225 4.5625 -5.0625 4.5625 C-5.3925 6.2125 -5.7225 7.8625 -6.0625 9.5625 C-7.7125 9.8925 -9.3625 10.2225 -11.0625 10.5625 C-10.74152344 11.12066406 -10.42054687 11.67882813 -10.08984375 12.25390625 C-8.31314783 16.24640545 -8.36389218 20.28785019 -9.0625 24.5625 C-11.25272918 27.38674288 -12.89267207 28.97758603 -16.0625 30.5625 C-21.35554255 30.90958476 -24.79608414 31.07601894 -29.0625 27.5625 C-31.80175184 24.04060478 -31.45316563 19.82585096 -31.0625 15.5625 C-30.22749712 11.80498705 -29.55583542 10.88765289 -26.3125 8.75 C-20.63171513 6.6743286 -16.63142308 7.44100549 -11.0625 9.5625 C-10.959375 8.77875 -10.85625 7.995 -10.75 7.1875 C-10.0625 4.5625 -10.0625 4.5625 -7.0625 2.5625 C-11.35497719 1.51860963 -15.54349941 1.37910654 -19.9375 1.375 C-20.61941406 1.36275391 -21.30132812 1.35050781 -22.00390625 1.33789062 C-27.45746119 1.32230904 -32.96893922 1.40043825 -36.97265625 5.53515625 Z M-24.3125 13.625 C-26.40257101 15.56698479 -26.40257101 15.56698479 -26.5 19.0625 C-26.31137668 22.42463565 -26.31137668 22.42463565 -24.9375 24.5 C-22.0925175 26.11215675 -20.2713071 26.08638687 -17.0625 25.5625 C-14.5107714 23.43564071 -14.5107714 23.43564071 -13.0625 20.5625 C-13.0625 17.62906941 -14.03148155 16.60100566 -15.875 14.3125 C-18.84977596 11.93267924 -20.8982612 12.01272057 -24.3125 13.625 Z " fill="#292B2C" transform="translate(79.0625,39.4375)"/>
</svg>
