<?xml version="1.0" encoding="UTF-8"?>
<svg version="1.1" xmlns="http://www.w3.org/2000/svg" width="823" height="806">
<path d="M0 0 C1.10320792 0.91289531 2.20882258 1.82288737 3.31640625 2.73046875 C45.03853872 37.18878952 70.39472968 88.34972694 75.82278442 141.90213013 C76.34733164 148.11169605 76.34492564 154.33517732 76.3125 160.5625 C76.30976578 161.66443695 76.30976578 161.66443695 76.30697632 162.78863525 C76.1156484 208.91549065 61.04420803 253.91777569 32 290 C30.77410156 291.53140625 30.77410156 291.53140625 29.5234375 293.09375 C18.50500461 306.60427556 6.175885 318.82891223 -8 329 C-8.66837891 329.48033691 -9.33675781 329.96067383 -10.02539062 330.45556641 C-34.46991685 347.80711722 -61.58496281 360.00904747 -91 366 C-91.74523926 366.16226074 -92.49047852 366.32452148 -93.25830078 366.49169922 C-118.23065347 371.75332343 -148.09846006 371.44905548 -173 366 C-173.80099121 365.83371094 -174.60198242 365.66742187 -175.42724609 365.49609375 C-214.14396522 357.29886641 -248.54175961 338.29095485 -277 311 C-277.79688232 310.24396484 -277.79688232 310.24396484 -278.60986328 309.47265625 C-286.90379571 301.57038858 -294.25212127 293.25752623 -301 284 C-301.61174072 283.17072998 -301.61174072 283.17072998 -302.23583984 282.32470703 C-319.60428375 258.4981375 -331.0376831 230.77164553 -337 202 C-337.16371094 201.24654297 -337.32742188 200.49308594 -337.49609375 199.71679688 C-342.66357587 174.96840108 -342.36431109 145.675831 -337 121 C-336.71793701 119.62593994 -336.71793701 119.62593994 -336.43017578 118.22412109 C-325.07967667 64.01803825 -292.03500193 16.57536066 -245.859375 -13.7421875 C-171.58095738 -61.3403569 -67.78329644 -59.22329131 0 0 Z M-260 24 C-260.57991699 24.53463867 -261.15983398 25.06927734 -261.75732422 25.62011719 C-287.75795345 49.90649804 -305.89339706 82.13895899 -314.3125 116.625 C-314.55500488 117.61298584 -314.79750977 118.60097168 -315.04736328 119.61889648 C-318.2120074 133.28054215 -319.4181374 146.86639126 -319.375 160.875 C-319.37412384 161.58211121 -319.37324768 162.28922241 -319.37234497 163.01776123 C-319.18712216 208.86200816 -302.37216166 253.23813822 -270.9921875 286.8515625 C-269.1813018 288.80447845 -267.50094792 290.81694159 -265.8125 292.875 C-239.33164891 323.0522628 -198.03663663 341.25017334 -159 347 C-158.3594165 347.10022461 -157.71883301 347.20044922 -157.05883789 347.30371094 C-148.99317171 348.39322047 -140.81159198 348.24388113 -132.6875 348.25 C-131.8835379 348.25067474 -131.07957581 348.25134949 -130.25125122 348.25204468 C-117.93486954 348.23563081 -106.05508144 347.73026365 -94 345 C-93.2359082 344.83371094 -92.47181641 344.66742187 -91.68457031 344.49609375 C-43.83684772 333.82373927 -1.09299111 304.55159414 25.453125 263.2265625 C52.37914681 220.16070678 61.86600577 168.97828107 50.74609375 119.234375 C39.37295737 71.35546611 10.41351776 29.77113658 -31 3 C-103.55419673 -41.51013954 -196.97544026 -34.14627655 -260 24 Z " fill="#F8F2EA" transform="translate(543,265)"/>
<path d="M0 0 C4.94767823 2.53408287 9.4273356 5.45178849 13.91601562 8.72314453 C15.41902235 9.80122263 16.92296258 10.87800023 18.42773438 11.95361328 C19.19907715 12.50581543 19.97041992 13.05801758 20.76513672 13.62695312 C24.55217897 16.31323054 28.38962706 18.92424644 32.22851562 21.53564453 C39.44491938 26.45293104 46.62652387 31.41803089 53.79101562 36.41064453 C62.8713068 42.73756192 71.9749399 49.02865654 81.10351562 55.28564453 C90.51767176 61.73837753 99.91271978 68.21838028 109.29101562 74.72314453 C110.28367432 75.40981201 111.27633301 76.09647949 112.29907227 76.80395508 C113.23871826 77.45662354 114.17836426 78.10929199 115.14648438 78.78173828 C115.98203857 79.36109131 116.81759277 79.94044434 117.6784668 80.53735352 C126.2024711 86.68256592 126.2024711 86.68256592 128.10351562 92.28564453 C129.01527564 99.3993765 128.67818291 104.39171558 124.65087891 110.38916016 C122.12652959 113.48306131 119.14670578 115.48542397 115.79101562 117.59814453 C114.34805866 118.54828788 112.90535701 119.49881906 111.46289062 120.44970703 C110.73263672 120.92311523 110.00238281 121.39652344 109.25 121.88427734 C105.97382505 124.02318137 102.75875003 126.24771416 99.54101562 128.47314453 C98.89559814 128.9166626 98.25018066 129.36018066 97.58520508 129.81713867 C91.69760116 133.86314912 85.83887437 137.95032181 79.97851562 142.03564453 C70.42534394 148.69295665 60.82131393 155.27226067 51.19335938 161.82080078 C46.69624228 164.87964691 42.20890248 167.9523556 37.72851562 171.03564453 C37.09405518 171.47215332 36.45959473 171.90866211 35.8059082 172.35839844 C32.53139335 174.61218133 29.25857856 176.86841935 25.98632812 179.12548828 C19.77056664 183.4106575 13.54836243 187.68637069 7.29101562 191.91064453 C6.35644531 192.54228516 5.421875 193.17392578 4.45898438 193.82470703 C-0.44117098 196.86394103 -5.29344057 196.87587615 -10.89648438 196.28564453 C-16.80793602 194.49584516 -20.46586002 191.33068035 -23.89648438 186.28564453 C-25.68428812 181.85823792 -26.15217142 178.12572904 -26.17063904 173.36737061 C-26.17587572 172.69551358 -26.1811124 172.02365654 -26.18650776 171.33144021 C-26.20144017 169.09313198 -26.20221141 166.85505372 -26.20288086 164.61669922 C-26.21050696 163.0064404 -26.21893523 161.39618522 -26.22810364 159.78593445 C-26.25001232 155.42004798 -26.25884276 151.05423154 -26.26393008 146.68829632 C-26.26757824 143.95743421 -26.27382072 141.22659032 -26.28093147 138.49573517 C-26.30541428 128.9593882 -26.31847514 119.42309553 -26.32202148 109.88671875 C-26.32565486 101.01276422 -26.35553903 92.13915594 -26.39742607 83.26530719 C-26.43217631 75.63450784 -26.44757075 68.00382297 -26.44826752 60.37294507 C-26.44905878 55.82077866 -26.45772769 51.2689651 -26.48626518 46.7168808 C-26.51252691 42.43212051 -26.51460626 38.14800358 -26.49860954 33.86319923 C-26.49680141 32.29674941 -26.50342806 30.7302619 -26.51942825 29.16389275 C-26.60309985 20.43577099 -26.44173234 12.49202792 -20.89648438 5.28564453 C-14.99159449 0.4545277 -7.59439214 -2.86060651 0 0 Z " fill="#F8F2EA" transform="translate(378.896484375,327.71435546875)"/>
</svg>
